<svg xmlns="http://www.w3.org/2000/svg" width="1120" height="630" viewBox="0 0 1120 630">
<rect width="1120" height="630" fill="#FBFCFE"/>
<text x="42.0" y="48.0" font-family="Inter, Arial, sans-serif" font-size="28" font-weight="800" fill="#1F2933" text-anchor="start">12-Map Success vs. Agent Count</text>
<text x="42.0" y="78.0" font-family="Inter, Arial, sans-serif" font-size="15" font-weight="500" fill="#65727F" text-anchor="start">Success rate at each density bucket; each point aggregates all scenarios for that agent count.</text>
<line x1="84" x2="1066" y1="534.0" y2="534.0" stroke="#D7DEE8" stroke-width="1"/>
<text x="72.0" y="539.0" font-family="Inter, Arial, sans-serif" font-size="13" font-weight="500" fill="#65727F" text-anchor="end">0</text>
<line x1="84" x2="1066" y1="429.5" y2="429.5" stroke="#D7DEE8" stroke-width="1"/>
<text x="72.0" y="434.5" font-family="Inter, Arial, sans-serif" font-size="13" font-weight="500" fill="#65727F" text-anchor="end">25</text>
<line x1="84" x2="1066" y1="325.0" y2="325.0" stroke="#D7DEE8" stroke-width="1"/>
<text x="72.0" y="330.0" font-family="Inter, Arial, sans-serif" font-size="13" font-weight="500" fill="#65727F" text-anchor="end">50</text>
<line x1="84" x2="1066" y1="220.5" y2="220.5" stroke="#D7DEE8" stroke-width="1"/>
<text x="72.0" y="225.5" font-family="Inter, Arial, sans-serif" font-size="13" font-weight="500" fill="#65727F" text-anchor="end">75</text>
<line x1="84" x2="1066" y1="116.0" y2="116.0" stroke="#D7DEE8" stroke-width="1"/>
<text x="72.0" y="121.0" font-family="Inter, Arial, sans-serif" font-size="13" font-weight="500" fill="#65727F" text-anchor="end">100</text>
<text x="24.0" y="325.0" font-family="Inter, Arial, sans-serif" font-size="14" font-weight="500" fill="#65727F" text-anchor="middle" transform="rotate(-90 24.0 325.0)">Success rate</text>
<line x1="84.0" x2="84.0" y1="116" y2="534" stroke="#D7DEE8" stroke-width="1" opacity="0.55"/>
<text x="84.0" y="564.0" font-family="Inter, Arial, sans-serif" font-size="14" font-weight="500" fill="#65727F" text-anchor="middle">100</text>
<line x1="193.1" x2="193.1" y1="116" y2="534" stroke="#D7DEE8" stroke-width="1" opacity="0.55"/>
<text x="193.1" y="564.0" font-family="Inter, Arial, sans-serif" font-size="14" font-weight="500" fill="#65727F" text-anchor="middle">200</text>
<line x1="302.2" x2="302.2" y1="116" y2="534" stroke="#D7DEE8" stroke-width="1" opacity="0.55"/>
<text x="302.2" y="564.0" font-family="Inter, Arial, sans-serif" font-size="14" font-weight="500" fill="#65727F" text-anchor="middle">300</text>
<line x1="411.3" x2="411.3" y1="116" y2="534" stroke="#D7DEE8" stroke-width="1" opacity="0.55"/>
<text x="411.3" y="564.0" font-family="Inter, Arial, sans-serif" font-size="14" font-weight="500" fill="#65727F" text-anchor="middle">400</text>
<line x1="520.4" x2="520.4" y1="116" y2="534" stroke="#D7DEE8" stroke-width="1" opacity="0.55"/>
<text x="520.4" y="564.0" font-family="Inter, Arial, sans-serif" font-size="14" font-weight="500" fill="#65727F" text-anchor="middle">500</text>
<line x1="629.6" x2="629.6" y1="116" y2="534" stroke="#D7DEE8" stroke-width="1" opacity="0.55"/>
<text x="629.6" y="564.0" font-family="Inter, Arial, sans-serif" font-size="14" font-weight="500" fill="#65727F" text-anchor="middle">600</text>
<line x1="738.7" x2="738.7" y1="116" y2="534" stroke="#D7DEE8" stroke-width="1" opacity="0.55"/>
<text x="738.7" y="564.0" font-family="Inter, Arial, sans-serif" font-size="14" font-weight="500" fill="#65727F" text-anchor="middle">700</text>
<line x1="847.8" x2="847.8" y1="116" y2="534" stroke="#D7DEE8" stroke-width="1" opacity="0.55"/>
<text x="847.8" y="564.0" font-family="Inter, Arial, sans-serif" font-size="14" font-weight="500" fill="#65727F" text-anchor="middle">800</text>
<line x1="956.9" x2="956.9" y1="116" y2="534" stroke="#D7DEE8" stroke-width="1" opacity="0.55"/>
<text x="956.9" y="564.0" font-family="Inter, Arial, sans-serif" font-size="14" font-weight="500" fill="#65727F" text-anchor="middle">900</text>
<line x1="1066.0" x2="1066.0" y1="116" y2="534" stroke="#D7DEE8" stroke-width="1" opacity="0.55"/>
<text x="1066.0" y="564.0" font-family="Inter, Arial, sans-serif" font-size="14" font-weight="500" fill="#65727F" text-anchor="middle">1000</text>
<text x="575.0" y="604.0" font-family="Inter, Arial, sans-serif" font-size="15" font-weight="500" fill="#65727F" text-anchor="middle">Agents</text>
<polyline points="84.0,180.1 193.1,221.9 302.2,252.5 411.3,289.3 520.4,315.1 629.6,338.4 738.7,366.8 847.8,366.8 956.9,371.8 1066.0,380.2" fill="none" stroke="#2D7DD2" stroke-width="4" stroke-linecap="round" stroke-linejoin="round"/>
<circle cx="84.0" cy="180.1" r="6" fill="#FBFCFE" stroke="#2D7DD2" stroke-width="4"/>
<circle cx="193.1" cy="221.9" r="6" fill="#FBFCFE" stroke="#2D7DD2" stroke-width="4"/>
<circle cx="302.2" cy="252.5" r="6" fill="#FBFCFE" stroke="#2D7DD2" stroke-width="4"/>
<circle cx="411.3" cy="289.3" r="6" fill="#FBFCFE" stroke="#2D7DD2" stroke-width="4"/>
<circle cx="520.4" cy="315.1" r="6" fill="#FBFCFE" stroke="#2D7DD2" stroke-width="4"/>
<circle cx="629.6" cy="338.4" r="6" fill="#FBFCFE" stroke="#2D7DD2" stroke-width="4"/>
<circle cx="738.7" cy="366.8" r="6" fill="#FBFCFE" stroke="#2D7DD2" stroke-width="4"/>
<circle cx="847.8" cy="366.8" r="6" fill="#FBFCFE" stroke="#2D7DD2" stroke-width="4"/>
<circle cx="956.9" cy="371.8" r="6" fill="#FBFCFE" stroke="#2D7DD2" stroke-width="4"/>
<circle cx="1066.0" cy="380.2" r="6" fill="#FBFCFE" stroke="#2D7DD2" stroke-width="4"/>
<text x="1076.0" y="385.2" font-family="Inter, Arial, sans-serif" font-size="13" font-weight="800" fill="#2D7DD2" text-anchor="start">37%</text>
<polyline points="84.0,174.5 193.1,226.1 302.2,293.0 411.3,341.0 520.4,392.6 629.6,378.5 738.7,388.5 847.8,395.2 956.9,396.9 1066.0,425.3" fill="none" stroke="#E76F51" stroke-width="4" stroke-linecap="round" stroke-linejoin="round"/>
<circle cx="84.0" cy="174.5" r="6" fill="#FBFCFE" stroke="#E76F51" stroke-width="4"/>
<circle cx="193.1" cy="226.1" r="6" fill="#FBFCFE" stroke="#E76F51" stroke-width="4"/>
<circle cx="302.2" cy="293.0" r="6" fill="#FBFCFE" stroke="#E76F51" stroke-width="4"/>
<circle cx="411.3" cy="341.0" r="6" fill="#FBFCFE" stroke="#E76F51" stroke-width="4"/>
<circle cx="520.4" cy="392.6" r="6" fill="#FBFCFE" stroke="#E76F51" stroke-width="4"/>
<circle cx="629.6" cy="378.5" r="6" fill="#FBFCFE" stroke="#E76F51" stroke-width="4"/>
<circle cx="738.7" cy="388.5" r="6" fill="#FBFCFE" stroke="#E76F51" stroke-width="4"/>
<circle cx="847.8" cy="395.2" r="6" fill="#FBFCFE" stroke="#E76F51" stroke-width="4"/>
<circle cx="956.9" cy="396.9" r="6" fill="#FBFCFE" stroke="#E76F51" stroke-width="4"/>
<circle cx="1066.0" cy="425.3" r="6" fill="#FBFCFE" stroke="#E76F51" stroke-width="4"/>
<text x="1076.0" y="430.3" font-family="Inter, Arial, sans-serif" font-size="13" font-weight="800" fill="#E76F51" text-anchor="start">26%</text>
<rect x="84.0" y="88.0" width="16" height="16" rx="4" fill="#2D7DD2"/>
<text x="108.0" y="101.0" font-family="Inter, Arial, sans-serif" font-size="15" font-weight="500" fill="#65727F" text-anchor="start">Rishi</text>
<rect x="224.0" y="88.0" width="16" height="16" rx="4" fill="#E76F51"/>
<text x="248.0" y="101.0" font-family="Inter, Arial, sans-serif" font-size="15" font-weight="500" fill="#65727F" text-anchor="start">Ours</text>
</svg>
