<svg xmlns="http://www.w3.org/2000/svg" width="1280" height="690" viewBox="0 0 1280 690">
<rect width="1280" height="690" fill="#FBFCFE"/>
<text x="42.0" y="48.0" font-family="Inter, Arial, sans-serif" font-size="28" font-weight="800" fill="#1F2933" text-anchor="start">12-Map Success by Map</text>
<text x="42.0" y="78.0" font-family="Inter, Arial, sans-serif" font-size="15" font-weight="500" fill="#65727F" text-anchor="start">All-agent success rate by map; missing runs are omitted from this eval panel.</text>
<line x1="78" x2="1238" y1="560.0" y2="560.0" stroke="#D7DEE8" stroke-width="1"/>
<text x="66.0" y="565.0" font-family="Inter, Arial, sans-serif" font-size="13" font-weight="500" fill="#65727F" text-anchor="end">0</text>
<line x1="78" x2="1238" y1="448.8" y2="448.8" stroke="#D7DEE8" stroke-width="1"/>
<text x="66.0" y="453.8" font-family="Inter, Arial, sans-serif" font-size="13" font-weight="500" fill="#65727F" text-anchor="end">25</text>
<line x1="78" x2="1238" y1="337.5" y2="337.5" stroke="#D7DEE8" stroke-width="1"/>
<text x="66.0" y="342.5" font-family="Inter, Arial, sans-serif" font-size="13" font-weight="500" fill="#65727F" text-anchor="end">50</text>
<line x1="78" x2="1238" y1="226.2" y2="226.2" stroke="#D7DEE8" stroke-width="1"/>
<text x="66.0" y="231.2" font-family="Inter, Arial, sans-serif" font-size="13" font-weight="500" fill="#65727F" text-anchor="end">75</text>
<line x1="78" x2="1238" y1="115.0" y2="115.0" stroke="#D7DEE8" stroke-width="1"/>
<text x="66.0" y="120.0" font-family="Inter, Arial, sans-serif" font-size="13" font-weight="500" fill="#65727F" text-anchor="end">100</text>
<text x="18.0" y="337.5" font-family="Inter, Arial, sans-serif" font-size="14" font-weight="500" fill="#65727F" text-anchor="middle" transform="rotate(-90 18.0 337.5)">Success rate</text>
<rect x="91.9" y="115.0" width="30.9" height="445.0" rx="5" fill="#2D7DD2"/>
<text x="107.4" y="107.0" font-family="Inter, Arial, sans-serif" font-size="12" font-weight="650" fill="#1F2933" text-anchor="middle">100%</text>
<rect x="129.8" y="115.0" width="30.9" height="445.0" rx="5" fill="#E76F51"/>
<text x="145.3" y="107.0" font-family="Inter, Arial, sans-serif" font-size="12" font-weight="650" fill="#1F2933" text-anchor="middle">100%</text>
<text x="126.3" y="583.0" font-family="Inter, Arial, sans-serif" font-size="13" font-weight="500" fill="#65727F" text-anchor="end" transform="rotate(-36 126.3 583.0)">Berlin_1_256</text>
<rect x="188.6" y="115.0" width="30.9" height="445.0" rx="5" fill="#2D7DD2"/>
<text x="204.0" y="107.0" font-family="Inter, Arial, sans-serif" font-size="12" font-weight="650" fill="#1F2933" text-anchor="middle">100%</text>
<rect x="226.5" y="115.0" width="30.9" height="445.0" rx="5" fill="#E76F51"/>
<text x="242.0" y="107.0" font-family="Inter, Arial, sans-serif" font-size="12" font-weight="650" fill="#1F2933" text-anchor="middle">100%</text>
<text x="223.0" y="583.0" font-family="Inter, Arial, sans-serif" font-size="13" font-weight="500" fill="#65727F" text-anchor="end" transform="rotate(-36 223.0 583.0)">Paris_1_256</text>
<rect x="285.3" y="417.6" width="30.9" height="142.4" rx="5" fill="#2D7DD2"/>
<text x="300.7" y="409.6" font-family="Inter, Arial, sans-serif" font-size="12" font-weight="650" fill="#1F2933" text-anchor="middle">32%</text>
<rect x="323.2" y="421.2" width="30.9" height="138.8" rx="5" fill="#E76F51"/>
<text x="338.6" y="413.2" font-family="Inter, Arial, sans-serif" font-size="12" font-weight="650" fill="#1F2933" text-anchor="middle">31%</text>
<text x="319.7" y="583.0" font-family="Inter, Arial, sans-serif" font-size="13" font-weight="500" fill="#65727F" text-anchor="end" transform="rotate(-36 319.7 583.0)">den312d</text>
<rect x="381.9" y="115.0" width="30.9" height="445.0" rx="5" fill="#2D7DD2"/>
<text x="397.4" y="107.0" font-family="Inter, Arial, sans-serif" font-size="12" font-weight="650" fill="#1F2933" text-anchor="middle">100%</text>
<rect x="419.8" y="218.2" width="30.9" height="341.8" rx="5" fill="#E76F51"/>
<text x="435.3" y="210.2" font-family="Inter, Arial, sans-serif" font-size="12" font-weight="650" fill="#1F2933" text-anchor="middle">77%</text>
<text x="416.3" y="583.0" font-family="Inter, Arial, sans-serif" font-size="13" font-weight="500" fill="#65727F" text-anchor="end" transform="rotate(-36 416.3 583.0)">empty-32-32</text>
<rect x="478.6" y="115.0" width="30.9" height="445.0" rx="5" fill="#2D7DD2"/>
<text x="494.0" y="107.0" font-family="Inter, Arial, sans-serif" font-size="12" font-weight="650" fill="#1F2933" text-anchor="middle">100%</text>
<rect x="516.5" y="148.8" width="30.9" height="411.2" rx="5" fill="#E76F51"/>
<text x="532.0" y="140.8" font-family="Inter, Arial, sans-serif" font-size="12" font-weight="650" fill="#1F2933" text-anchor="middle">92%</text>
<text x="513.0" y="583.0" font-family="Inter, Arial, sans-serif" font-size="13" font-weight="500" fill="#65727F" text-anchor="end" transform="rotate(-36 513.0 583.0)">empty-48-48</text>
<rect x="575.3" y="373.1" width="30.9" height="186.9" rx="5" fill="#2D7DD2"/>
<text x="590.7" y="365.1" font-family="Inter, Arial, sans-serif" font-size="12" font-weight="650" fill="#1F2933" text-anchor="middle">42%</text>
<rect x="613.2" y="446.1" width="30.9" height="113.9" rx="5" fill="#E76F51"/>
<text x="628.6" y="438.1" font-family="Inter, Arial, sans-serif" font-size="12" font-weight="650" fill="#1F2933" text-anchor="middle">26%</text>
<text x="609.7" y="583.0" font-family="Inter, Arial, sans-serif" font-size="13" font-weight="500" fill="#65727F" text-anchor="end" transform="rotate(-36 609.7 583.0)">maze-128-128-2</text>
<rect x="671.9" y="494.7" width="30.9" height="65.3" rx="5" fill="#2D7DD2"/>
<text x="687.4" y="486.7" font-family="Inter, Arial, sans-serif" font-size="12" font-weight="650" fill="#1F2933" text-anchor="middle">15%</text>
<rect x="709.8" y="506.6" width="30.9" height="53.4" rx="5" fill="#E76F51"/>
<text x="725.3" y="498.6" font-family="Inter, Arial, sans-serif" font-size="12" font-weight="650" fill="#1F2933" text-anchor="middle">12%</text>
<text x="706.3" y="583.0" font-family="Inter, Arial, sans-serif" font-size="13" font-weight="500" fill="#65727F" text-anchor="end" transform="rotate(-36 706.3 583.0)">maze-32-32-4</text>
<rect x="768.6" y="180.9" width="30.9" height="379.1" rx="5" fill="#2D7DD2"/>
<text x="784.0" y="172.9" font-family="Inter, Arial, sans-serif" font-size="12" font-weight="650" fill="#1F2933" text-anchor="middle">85%</text>
<rect x="806.5" y="264.5" width="30.9" height="295.5" rx="5" fill="#E76F51"/>
<text x="822.0" y="256.5" font-family="Inter, Arial, sans-serif" font-size="12" font-weight="650" fill="#1F2933" text-anchor="middle">66%</text>
<text x="803.0" y="583.0" font-family="Inter, Arial, sans-serif" font-size="13" font-weight="500" fill="#65727F" text-anchor="end" transform="rotate(-36 803.0 583.0)">rand-64-64-10</text>
<rect x="865.3" y="373.1" width="30.9" height="186.9" rx="5" fill="#2D7DD2"/>
<text x="880.7" y="365.1" font-family="Inter, Arial, sans-serif" font-size="12" font-weight="650" fill="#1F2933" text-anchor="middle">42%</text>
<rect x="903.2" y="462.1" width="30.9" height="97.9" rx="5" fill="#E76F51"/>
<text x="918.6" y="454.1" font-family="Inter, Arial, sans-serif" font-size="12" font-weight="650" fill="#1F2933" text-anchor="middle">22%</text>
<text x="899.7" y="583.0" font-family="Inter, Arial, sans-serif" font-size="13" font-weight="500" fill="#65727F" text-anchor="end" transform="rotate(-36 899.7 583.0)">rand-64-64-20</text>
<rect x="961.9" y="439.0" width="30.9" height="121.0" rx="5" fill="#2D7DD2"/>
<text x="977.4" y="431.0" font-family="Inter, Arial, sans-serif" font-size="12" font-weight="650" fill="#1F2933" text-anchor="middle">27%</text>
<rect x="999.8" y="490.6" width="30.9" height="69.4" rx="5" fill="#E76F51"/>
<text x="1015.3" y="482.6" font-family="Inter, Arial, sans-serif" font-size="12" font-weight="650" fill="#1F2933" text-anchor="middle">16%</text>
<text x="996.3" y="583.0" font-family="Inter, Arial, sans-serif" font-size="13" font-weight="500" fill="#65727F" text-anchor="end" transform="rotate(-36 996.3 583.0)">room-64-64-16</text>
<rect x="1058.6" y="549.3" width="30.9" height="10.7" rx="5" fill="#2D7DD2"/>
<text x="1074.0" y="541.3" font-family="Inter, Arial, sans-serif" font-size="12" font-weight="650" fill="#1F2933" text-anchor="middle">2%</text>
<rect x="1096.5" y="540.4" width="30.9" height="19.6" rx="5" fill="#E76F51"/>
<text x="1112.0" y="532.4" font-family="Inter, Arial, sans-serif" font-size="12" font-weight="650" fill="#1F2933" text-anchor="middle">4%</text>
<text x="1093.0" y="583.0" font-family="Inter, Arial, sans-serif" font-size="13" font-weight="500" fill="#65727F" text-anchor="end" transform="rotate(-36 1093.0 583.0)">wh-10-20-10-2-1</text>
<rect x="1155.3" y="510.2" width="30.9" height="49.8" rx="5" fill="#2D7DD2"/>
<text x="1170.7" y="502.2" font-family="Inter, Arial, sans-serif" font-size="12" font-weight="650" fill="#1F2933" text-anchor="middle">11%</text>
<rect x="1193.2" y="501.3" width="30.9" height="58.7" rx="5" fill="#E76F51"/>
<text x="1208.6" y="493.3" font-family="Inter, Arial, sans-serif" font-size="12" font-weight="650" fill="#1F2933" text-anchor="middle">13%</text>
<text x="1189.7" y="583.0" font-family="Inter, Arial, sans-serif" font-size="13" font-weight="500" fill="#65727F" text-anchor="end" transform="rotate(-36 1189.7 583.0)">wh-20-40-10-2-1</text>
<rect x="78.0" y="644.0" width="16" height="16" rx="4" fill="#2D7DD2"/>
<text x="102.0" y="657.0" font-family="Inter, Arial, sans-serif" font-size="15" font-weight="500" fill="#65727F" text-anchor="start">Rishi</text>
<rect x="218.0" y="644.0" width="16" height="16" rx="4" fill="#E76F51"/>
<text x="242.0" y="657.0" font-family="Inter, Arial, sans-serif" font-size="15" font-weight="500" fill="#65727F" text-anchor="start">Ours</text>
</svg>
